<svg xmlns="http://www.w3.org/2000/svg"  viewBox="0 0 100 100" width="100px" height="100px" baseProfile="basic"><path d="M71.401,90.957c-2.549,0-4.966-1.229-6.465-3.289c-1.111-1.522-2.157-3.119-3.128-4.774 c-3.217,0.591-6.482,0.89-9.749,0.89c-3.3,0-6.606-0.305-9.872-0.909c-0.963,1.642-2.01,3.239-3.128,4.779 c-1.502,2.065-3.921,3.298-6.472,3.298c-0.808,0-1.609-0.122-2.383-0.364C21.994,88.03,14.587,84.236,7.562,78.99 c-1.811-1.352-2.969-3.418-3.179-5.668c-1.74-18.648,2.562-35.492,13.152-51.495c0.811-1.226,1.942-2.203,3.271-2.827 c5.895-2.765,12.135-4.729,18.549-5.839c0.446-0.078,0.907-0.117,1.365-0.117c2.795,0,5.385,1.463,6.832,3.838 c1.472-0.095,2.945-0.144,4.407-0.144c1.477,0,2.969,0.049,4.466,0.146c1.446-2.377,4.035-3.841,6.833-3.841 c0.458,0,0.917,0.04,1.367,0.117c6.407,1.11,12.64,3.068,18.525,5.822c1.321,0.619,2.447,1.585,3.257,2.794 c10.512,15.698,14.956,33.044,13.208,51.555c-0.212,2.246-1.37,4.307-3.177,5.657c-7.018,5.247-14.431,9.045-22.661,11.606 C73.011,90.834,72.21,90.957,71.401,90.957z" opacity=".35"/><path fill="#f2f2f2" d="M69.401,88.957c-2.549,0-4.966-1.229-6.465-3.289c-1.111-1.522-2.157-3.119-3.128-4.774 c-3.217,0.591-6.482,0.89-9.749,0.89c-3.3,0-6.606-0.305-9.872-0.909c-0.963,1.642-2.01,3.239-3.128,4.779 c-1.502,2.065-3.921,3.298-6.472,3.298c-0.808,0-1.609-0.122-2.383-0.364C19.994,86.03,12.587,82.236,5.562,76.99 c-1.811-1.352-2.969-3.418-3.179-5.668c-1.74-18.648,2.562-35.492,13.152-51.495c0.811-1.226,1.942-2.203,3.271-2.827 c5.895-2.765,12.135-4.729,18.549-5.839c0.446-0.078,0.907-0.117,1.365-0.117c2.795,0,5.385,1.463,6.832,3.838 c1.472-0.095,2.945-0.144,4.407-0.144c1.477,0,2.969,0.049,4.466,0.146c1.446-2.377,4.035-3.841,6.833-3.841 c0.458,0,0.917,0.04,1.367,0.117c6.407,1.11,12.64,3.068,18.525,5.822c1.321,0.619,2.447,1.585,3.257,2.794 C94.92,35.475,99.363,52.821,97.615,71.332c-0.212,2.246-1.37,4.307-3.177,5.657c-7.018,5.247-14.431,9.045-22.661,11.606 C71.011,88.834,70.21,88.957,69.401,88.957z"/><path fill="#bd7bc8" d="M68.188,81.841c-1.665-2.283-3.167-4.756-4.464-7.352l-0.529-1.06 c-4.296,1.232-8.69,1.854-13.137,1.854c-4.473,0-8.909-0.629-13.26-1.876l-0.535,1.074c-1.271,2.55-2.772,5.023-4.463,7.351 l-0.633,0.871l-1.027-0.32c-7.497-2.336-14.265-5.803-20.688-10.601l-0.534-0.398L8.856,70.72 c-1.598-17.114,2.36-32.588,12.1-47.306l0.232-0.352l0.382-0.179c5.368-2.518,11.053-4.308,16.895-5.318l1.048-0.181l0.518,0.929 c0.584,1.046,1.223,2.319,1.746,3.472c2.711-0.363,5.459-0.547,8.184-0.547c2.73,0,5.506,0.185,8.266,0.549 c0.533-1.187,1.165-2.462,1.723-3.47l0.517-0.934l1.052,0.182c5.841,1.012,11.521,2.796,16.88,5.305l0.378,0.177l0.232,0.347 c9.794,14.625,13.764,30.105,12.137,47.327l-0.062,0.662l-0.532,0.398c-6.419,4.799-13.19,8.269-20.702,10.607l-1.025,0.319 L68.188,81.841z"/><path fill="#40396e" d="M68.821,84.208c-0.471,0-0.924-0.222-1.212-0.616l-0.633-0.867v0 c-1.706-2.34-3.245-4.871-4.573-7.524c-8.118,2.109-16.648,2.102-24.812-0.022c-1.307,2.617-2.847,5.151-4.577,7.535l-0.633,0.872 c-0.379,0.52-1.044,0.743-1.66,0.55l-1.027-0.32c-7.663-2.388-14.578-5.931-21.14-10.831l-0.533-0.398 c-0.341-0.254-0.558-0.641-0.597-1.063l-0.062-0.664C5.732,53.391,9.77,37.601,19.705,22.586l0.232-0.351 c0.152-0.23,0.365-0.415,0.615-0.531l0.382-0.179c5.488-2.575,11.301-4.404,17.274-5.438l1.048-0.181 c0.633-0.11,1.256,0.191,1.566,0.748l0.518,0.929c0.433,0.776,0.898,1.678,1.332,2.579c4.846-0.563,9.734-0.562,14.65,0.003 c0.436-0.917,0.895-1.819,1.312-2.574l0.517-0.934c0.309-0.559,0.938-0.86,1.568-0.752l1.052,0.182 c5.974,1.035,11.78,2.86,17.26,5.424l0.378,0.176c0.247,0.116,0.459,0.297,0.61,0.524l0.232,0.347 c9.994,14.923,14.045,30.723,12.384,48.303l-0.062,0.662c-0.04,0.421-0.256,0.807-0.595,1.06l-0.532,0.398 c-6.559,4.903-13.478,8.449-21.154,10.838l-1.025,0.319C69.12,84.186,68.97,84.208,68.821,84.208z M69.4,80.957L69.4,80.957 c7.346-2.287,13.97-5.681,20.25-10.376l0,0c1.593-16.864-2.296-32.026-11.89-46.352l0,0c-5.238-2.451-10.79-4.196-16.5-5.185 c-0.533,0.963-1.141,2.187-1.667,3.358c-0.271,0.604-0.904,0.951-1.564,0.873c-5.386-0.712-10.766-0.711-16.054-0.002 c-0.654,0.089-1.291-0.264-1.565-0.867c-0.516-1.137-1.132-2.362-1.689-3.361l-0.001-0.001c-5.709,0.988-11.265,2.737-16.513,5.198 v0C12.664,38.663,8.785,53.821,10.35,70.58c6.285,4.693,12.904,8.085,20.237,10.37v0c1.641-2.258,3.099-4.66,4.334-7.138 l0.535-1.074c0.322-0.646,1.062-0.973,1.756-0.773c8.394,2.405,17.234,2.413,25.569,0.022c0.696-0.203,1.433,0.125,1.756,0.772 l0.529,1.06C66.325,76.338,67.783,78.739,69.4,80.957L69.4,80.957z"/><path fill="#f2f2f2" d="M36.714,60.939c-3.951,0-7.19-3.688-7.19-8.179s3.171-8.186,7.19-8.186 c4.02,0,7.26,3.688,7.19,8.186C43.91,57.251,40.734,60.939,36.714,60.939z"/><path fill="#40396e" d="M36.714,62.439c-4.792,0-8.69-4.342-8.69-9.679c0-5.341,3.898-9.686,8.69-9.686 c2.195,0,4.291,0.9,5.899,2.534c1.815,1.844,2.833,4.458,2.791,7.175c0.004,2.725-1.044,5.353-2.874,7.185 C40.939,61.562,38.873,62.439,36.714,62.439z M36.714,46.074c-3.138,0-5.69,2.999-5.69,6.686c0,3.683,2.553,6.679,5.69,6.679 c1.357,0,2.669-0.565,3.694-1.591c1.271-1.273,1.999-3.126,1.996-5.086c0.029-1.943-0.673-3.774-1.928-5.049 C39.436,46.656,38.1,46.074,36.714,46.074z"/><path fill="#f2f2f2" d="M63.286,60.939c-3.951,0-7.19-3.688-7.19-8.179s3.171-8.186,7.19-8.186 c4.02,0,7.26,3.688,7.19,8.186C70.476,57.251,67.306,60.939,63.286,60.939z"/><path fill="#40396e" d="M63.286,62.439c-4.792,0-8.69-4.342-8.69-9.679c0-5.341,3.898-9.686,8.69-9.686 c2.195,0,4.291,0.9,5.899,2.534c1.815,1.844,2.833,4.458,2.791,7.175C71.977,58.097,68.078,62.439,63.286,62.439z M63.286,46.074 c-3.138,0-5.69,2.999-5.69,6.686c0,3.683,2.553,6.679,5.69,6.679s5.69-2.996,5.69-6.679c0.029-1.941-0.673-3.772-1.928-5.047 C66.008,46.656,64.672,46.074,63.286,46.074z"/><path fill="#40396e" d="M50.059,76.783c-12.167,0-20.823-4.713-21.186-4.914c-0.724-0.401-0.986-1.312-0.586-2.037 c0.4-0.724,1.313-0.987,2.037-0.588c0.083,0.045,8.377,4.54,19.734,4.54s19.651-4.494,19.734-4.54 c0.725-0.399,1.637-0.136,2.037,0.588s0.138,1.636-0.586,2.037C70.882,72.07,62.226,76.783,50.059,76.783z"/></svg>